<svg xmlns="http://www.w3.org/2000/svg" xmlns:xlink="http://www.w3.org/1999/xlink" width="50" zoomAndPan="magnify" viewBox="0 0 375 374.999991" height="50" preserveAspectRatio="xMidYMid meet" version="1.0"><defs><g/><clipPath id="04856538ee"><path d="M 8.089844 8.089844 L 366.910156 8.089844 L 366.910156 366.910156 L 8.089844 366.910156 Z M 8.089844 8.089844 " clip-rule="nonzero"/></clipPath><clipPath id="d510deb6bd"><path d="M 187.5 8.089844 L 366.910156 187.5 L 187.5 366.910156 L 8.089844 187.5 Z M 187.5 8.089844 " clip-rule="nonzero"/></clipPath><clipPath id="9ec4affbb6"><path d="M 8.089844 8.089844 L 366.71875 8.089844 L 366.71875 366.71875 L 8.089844 366.71875 Z M 8.089844 8.089844 " clip-rule="nonzero"/></clipPath><clipPath id="b2524426ba"><path d="M 187.492188 8.089844 L 366.898438 187.492188 L 187.492188 366.898438 L 8.089844 187.492188 Z M 187.492188 8.089844 " clip-rule="nonzero"/></clipPath></defs><g clip-path="url(#04856538ee)"><g clip-path="url(#d510deb6bd)"><path fill="#000000" d="M 8.089844 8.089844 L 366.910156 8.089844 L 366.910156 366.910156 L 8.089844 366.910156 Z M 8.089844 8.089844 " fill-opacity="1" fill-rule="nonzero"/></g></g><g clip-path="url(#9ec4affbb6)"><g clip-path="url(#b2524426ba)"><path stroke-linecap="butt" transform="matrix(1.262787, 0, 0, 1.262787, 8.088509, 8.088505)" fill="none" stroke-linejoin="miter" d="M 142.069626 0.00106023 L 284.141288 142.069629 L 142.069626 284.141291 L 0.00105666 142.069629 Z M 142.069626 0.00106023 " stroke="#ffffff" stroke-width="10.690638" stroke-opacity="1" stroke-miterlimit="4"/></g></g><g fill="#ffffff" fill-opacity="1"><g transform="translate(167.675623, 272.04281)"><g><path d="M 80.796875 -59.324219 C 91.769531 -63.140625 97.496094 -70.773438 97.496094 -81.429688 C 97.496094 -96.0625 87.316406 -106.878906 69.503906 -109.105469 C 63.9375 -109.742188 61.074219 -109.742188 55.347656 -109.742188 L 13.519531 -109.742188 L 13.519531 0 L 55.1875 0 C 61.710938 0 65.367188 0 70.773438 -0.636719 C 85.566406 -2.542969 101.472656 -12.566406 101.472656 -32.921875 C 101.472656 -46.757812 94.792969 -55.664062 80.796875 -59.324219 Z M 38.488281 -90.335938 L 52.960938 -90.335938 C 55.507812 -90.335938 58.371094 -90.179688 60.597656 -89.859375 C 67.117188 -88.90625 71.410156 -85.40625 71.410156 -78.089844 C 71.410156 -70.773438 67.59375 -67.117188 60.753906 -66.003906 C 58.527344 -65.6875 55.984375 -65.527344 53.4375 -65.527344 L 38.488281 -65.527344 Z M 63.140625 -19.722656 C 61.074219 -19.5625 58.527344 -19.5625 55.984375 -19.5625 L 38.488281 -19.5625 L 38.488281 -47.238281 L 55.03125 -47.238281 C 57.574219 -47.238281 60.121094 -47.238281 62.664062 -46.917969 C 69.660156 -46.28125 75.386719 -42.148438 75.386719 -33.242188 C 75.386719 -24.96875 69.660156 -20.199219 63.140625 -19.722656 Z M 63.140625 -19.722656 "/></g></g></g><g fill="#ffffff" fill-opacity="1"><g transform="translate(117.586338, 229.407416)"><g><path d="M 51.886719 0 L 51.886719 -147.9375 L 18.222656 -147.9375 L 18.222656 0 Z M 51.886719 0 "/></g></g></g><g fill="#ffffff" fill-opacity="1"><g transform="translate(43.926226, 181.80753)"><g><path d="M 30.183594 -6.792969 L 20.21875 -16.757812 L 18.75 -15.289062 L 22.867188 -11.171875 L 7.316406 4.378906 L 3.199219 0.261719 L 1.730469 1.730469 L 11.695312 11.695312 L 13.164062 10.226562 L 9.046875 6.109375 L 24.597656 -9.441406 L 28.714844 -5.324219 Z M 30.183594 -6.792969 "/></g></g></g><g fill="#ffffff" fill-opacity="1"><g transform="translate(65.243791, 203.125096)"><g><path d="M 20.375 -3.171875 C 22.660156 -0.890625 22.710938 1.3125 19.929688 4.089844 L 12.011719 12.011719 L 13.742188 13.742188 L 21.871094 5.613281 C 25.386719 2.097656 25.097656 -1.390625 22.238281 -4.25 C 19.40625 -7.082031 16.15625 -7.132812 13.269531 -5.296875 L 12.746094 -5.820312 L 14.320312 -6.871094 L 16.707031 -9.257812 L 14.972656 -10.988281 L 1.992188 1.992188 L 3.722656 3.722656 L 9.675781 -2.230469 C 13.136719 -5.691406 17.519531 -6.03125 20.375 -3.171875 Z M 20.375 -3.171875 "/></g></g></g><g fill="#ffffff" fill-opacity="1"><g transform="translate(88.606375, 226.487679)"><g><path d="M 12.953125 12.953125 L 14.84375 0.785156 L 20.191406 2.253906 C 21.214844 2.542969 22.160156 2.335938 22.867188 1.46875 L 24.886719 -1.074219 L 23.15625 -2.804688 L 20.824219 0.105469 L 10.28125 -2.832031 L 23 -15.550781 L 21.269531 -17.28125 L 1.992188 1.992188 L 3.722656 3.722656 L 8.445312 -0.996094 L 12.667969 0.183594 L 10.988281 10.988281 Z M 12.953125 12.953125 "/></g></g></g><g fill="#ffffff" fill-opacity="1"><g transform="translate(110.658047, 248.539352)"><g><path d="M 7.917969 7.917969 C 12.324219 12.324219 16.207031 13.636719 19.824219 10.019531 C 23 6.84375 22.265625 3.433594 19.484375 0.550781 L 20.007812 0.0273438 C 22.027344 1.785156 24.992188 2.125 27.511719 -0.394531 C 31.15625 -4.039062 29.449219 -7.527344 25.042969 -11.933594 L 20.480469 -16.496094 L 1.992188 1.992188 Z M 20.742188 -13.296875 L 23.574219 -10.464844 C 26.855469 -7.1875 28.609375 -4.957031 25.515625 -1.863281 C 22.710938 0.945312 20.191406 -0.523438 16.914062 -3.800781 L 14.082031 -6.636719 Z M 12.613281 -5.167969 L 16.808594 -0.96875 C 20.089844 2.308594 21.191406 5.191406 18.355469 8.023438 C 15.289062 11.09375 12.667969 9.730469 9.386719 6.453125 L 5.191406 2.253906 Z M 12.613281 -5.167969 "/></g></g></g><g fill="#ffffff" fill-opacity="1"><g transform="translate(135.200449, 273.081753)"><g><path d="M 10.226562 5.664062 L 9.441406 6.453125 L 8.917969 5.925781 L 9.703125 5.140625 L 16.050781 -9.914062 L 14.1875 -11.773438 L 6.820312 6.820312 L 3.304688 10.332031 L -1.152344 5.351562 L -2.621094 6.820312 L 1.863281 11.828125 C 2.988281 13.058594 4.089844 13.007812 5.007812 12.089844 L 8.550781 8.550781 L 27.117188 1.152344 L 25.253906 -0.707031 Z M 10.226562 5.664062 "/></g></g></g><g fill="#ffffff" fill-opacity="1"><g transform="translate(158.16976, 296.051065)"><g><path d="M 16.730469 -6.292969 L 20.742188 -2.28125 L 22.210938 -3.75 L 18.199219 -7.761719 L 22.265625 -11.828125 L 20.007812 -13.035156 L 16.46875 -9.492188 L 13.664062 -12.300781 L 12.195312 -10.832031 L 15 -8.023438 L 4.929688 2.046875 C 3.75 3.226562 3.671875 4.351562 4.929688 5.453125 L 9.753906 9.753906 L 11.222656 8.285156 L 6.398438 4.039062 Z M 16.730469 -6.292969 "/></g></g></g><g fill="#ffffff" fill-opacity="1"><g transform="translate(177.022816, 314.90412)"><g><path d="M 8.128906 -5.191406 C 4.378906 -1.441406 3.09375 3.617188 7.65625 8.183594 C 11.722656 12.246094 15.945312 10.960938 18.515625 9.441406 L 16.785156 7.710938 C 14.082031 9.363281 11.433594 9.019531 9.125 6.714844 C 5.742188 3.332031 6.898438 -0.183594 9.386719 -2.988281 L 19.722656 7.34375 L 20.457031 6.609375 C 24.46875 2.597656 24.46875 -2.019531 20.875 -5.613281 C 17.28125 -9.203125 12.324219 -9.386719 8.128906 -5.191406 Z M 10.855469 -4.457031 C 13.164062 -6.765625 16.808594 -6.738281 19.40625 -4.144531 C 22.082031 -1.46875 21.765625 1.835938 19.457031 4.144531 Z M 10.855469 -4.457031 "/></g></g></g><g fill="#ffffff" fill-opacity="1"><g transform="translate(168.579813, 53.371811)"><g><path d="M 30.183594 -6.792969 L 20.21875 -16.757812 L 18.75 -15.289062 L 22.867188 -11.171875 L 7.316406 4.378906 L 3.199219 0.261719 L 1.730469 1.730469 L 11.695312 11.695312 L 13.164062 10.226562 L 9.046875 6.109375 L 24.597656 -9.441406 L 28.714844 -5.324219 Z M 30.183594 -6.792969 "/></g></g></g><g fill="#ffffff" fill-opacity="1"><g transform="translate(189.897378, 74.689377)"><g><path d="M 20.375 -3.171875 C 22.660156 -0.890625 22.710938 1.3125 19.929688 4.089844 L 12.011719 12.011719 L 13.742188 13.742188 L 21.871094 5.613281 C 25.386719 2.097656 25.097656 -1.390625 22.238281 -4.25 C 19.40625 -7.082031 16.15625 -7.132812 13.269531 -5.296875 L 12.746094 -5.820312 L 14.320312 -6.871094 L 16.707031 -9.257812 L 14.972656 -10.988281 L 1.992188 1.992188 L 3.722656 3.722656 L 9.675781 -2.230469 C 13.136719 -5.691406 17.519531 -6.03125 20.375 -3.171875 Z M 20.375 -3.171875 "/></g></g></g><g fill="#ffffff" fill-opacity="1"><g transform="translate(213.259962, 98.05196)"><g><path d="M 12.953125 12.953125 L 14.84375 0.785156 L 20.191406 2.253906 C 21.214844 2.542969 22.160156 2.335938 22.867188 1.46875 L 24.886719 -1.074219 L 23.15625 -2.804688 L 20.824219 0.105469 L 10.28125 -2.832031 L 23 -15.550781 L 21.269531 -17.28125 L 1.992188 1.992188 L 3.722656 3.722656 L 8.445312 -0.996094 L 12.667969 0.183594 L 10.988281 10.988281 Z M 12.953125 12.953125 "/></g></g></g><g fill="#ffffff" fill-opacity="1"><g transform="translate(235.311634, 120.103633)"><g><path d="M 7.917969 7.917969 C 12.324219 12.324219 16.207031 13.636719 19.824219 10.019531 C 23 6.84375 22.265625 3.433594 19.484375 0.550781 L 20.007812 0.0273438 C 22.027344 1.785156 24.992188 2.125 27.511719 -0.394531 C 31.15625 -4.039062 29.449219 -7.527344 25.042969 -11.933594 L 20.480469 -16.496094 L 1.992188 1.992188 Z M 20.742188 -13.296875 L 23.574219 -10.464844 C 26.855469 -7.1875 28.609375 -4.957031 25.515625 -1.863281 C 22.710938 0.945312 20.191406 -0.523438 16.914062 -3.800781 L 14.082031 -6.636719 Z M 12.613281 -5.167969 L 16.808594 -0.96875 C 20.089844 2.308594 21.191406 5.191406 18.355469 8.023438 C 15.289062 11.09375 12.667969 9.730469 9.386719 6.453125 L 5.191406 2.253906 Z M 12.613281 -5.167969 "/></g></g></g><g fill="#ffffff" fill-opacity="1"><g transform="translate(259.854036, 144.646034)"><g><path d="M 10.226562 5.664062 L 9.441406 6.453125 L 8.917969 5.925781 L 9.703125 5.140625 L 16.050781 -9.914062 L 14.1875 -11.773438 L 6.820312 6.820312 L 3.304688 10.332031 L -1.152344 5.351562 L -2.621094 6.820312 L 1.863281 11.828125 C 2.988281 13.058594 4.089844 13.007812 5.007812 12.089844 L 8.550781 8.550781 L 27.117188 1.152344 L 25.253906 -0.707031 Z M 10.226562 5.664062 "/></g></g></g><g fill="#ffffff" fill-opacity="1"><g transform="translate(282.823347, 167.615346)"><g><path d="M 16.730469 -6.292969 L 20.742188 -2.28125 L 22.210938 -3.75 L 18.199219 -7.761719 L 22.265625 -11.828125 L 20.007812 -13.035156 L 16.46875 -9.492188 L 13.664062 -12.300781 L 12.195312 -10.832031 L 15 -8.023438 L 4.929688 2.046875 C 3.75 3.226562 3.671875 4.351562 4.929688 5.453125 L 9.753906 9.753906 L 11.222656 8.285156 L 6.398438 4.039062 Z M 16.730469 -6.292969 "/></g></g></g><g fill="#ffffff" fill-opacity="1"><g transform="translate(301.676403, 186.468401)"><g><path d="M 8.128906 -5.191406 C 4.378906 -1.441406 3.09375 3.617188 7.65625 8.183594 C 11.722656 12.246094 15.945312 10.960938 18.515625 9.441406 L 16.785156 7.710938 C 14.082031 9.363281 11.433594 9.019531 9.125 6.714844 C 5.742188 3.332031 6.898438 -0.183594 9.386719 -2.988281 L 19.722656 7.34375 L 20.457031 6.609375 C 24.46875 2.597656 24.46875 -2.019531 20.875 -5.613281 C 17.28125 -9.203125 12.324219 -9.386719 8.128906 -5.191406 Z M 10.855469 -4.457031 C 13.164062 -6.765625 16.808594 -6.738281 19.40625 -4.144531 C 22.082031 -1.46875 21.765625 1.835938 19.457031 4.144531 Z M 10.855469 -4.457031 "/></g></g></g></svg>